<svg width="44" height="44" viewBox="0 0 44 44" fill="none" xmlns="http://www.w3.org/2000/svg">
<path d="M0 8C0 3.58172 3.58172 0 8 0H36C40.4183 0 44 3.58172 44 8V36C44 40.4183 40.4183 44 36 44H8C3.58172 44 0 40.4183 0 36V8Z" fill="white" fill-opacity="0.1"/>
<rect x="17.1968" y="26.1924" width="13" height="2" rx="1" transform="rotate(-45 17.1968 26.1924)" fill="white"/>
<rect x="17.1968" y="26.1924" width="13" height="2" rx="1" transform="rotate(-45 17.1968 26.1924)" fill="white"/>
<rect x="18.611" y="17" width="13" height="2" rx="1" transform="rotate(45 18.611 17)" fill="white"/>
<rect x="18.611" y="17" width="13" height="2" rx="1" transform="rotate(45 18.611 17)" fill="white"/>
</svg>
